<svg width="25" height="25" viewBox="0 0 25 25" fill="none" xmlns="http://www.w3.org/2000/svg">
<g clip-path="url(#clip0_1_46)">
<path d="M6.94444 12.5C6.94444 11.5972 6.38888 10.8333 5.55555 10.5555V8.1944C6.38888 7.91663 6.94444 7.15274 6.94444 6.24996C6.94444 5.0694 6.04166 4.16663 4.8611 4.16663C3.68055 4.16663 2.77777 5.0694 2.77777 6.24996C2.77777 7.15274 3.33333 7.91663 4.16666 8.1944V10.5555C3.33333 10.8333 2.77777 11.5972 2.77777 12.5C2.77777 13.4027 3.33333 14.1666 4.16666 14.4444V16.8055C3.33333 17.0833 2.77777 17.8472 2.77777 18.75C2.77777 19.9305 3.68055 20.8333 4.8611 20.8333C6.04166 20.8333 6.94444 19.9305 6.94444 18.75C6.94444 17.8472 6.38888 17.0833 5.55555 16.8055V14.4444C6.38888 14.1666 6.94444 13.4027 6.94444 12.5ZM21.5278 6.9444H10.4167C9.99999 6.9444 9.72222 6.66663 9.72222 6.24996C9.72222 5.83329 9.99999 5.55551 10.4167 5.55551H21.5278C21.9444 5.55551 22.2222 5.83329 22.2222 6.24996C22.2222 6.66663 21.9444 6.9444 21.5278 6.9444ZM21.5278 13.1944H10.4167C9.99999 13.1944 9.72222 12.9166 9.72222 12.5C9.72222 12.0833 9.99999 11.8055 10.4167 11.8055H21.5278C21.9444 11.8055 22.2222 12.0833 22.2222 12.5C22.2222 12.9166 21.9444 13.1944 21.5278 13.1944ZM21.5278 19.4444H10.4167C9.99999 19.4444 9.72222 19.1666 9.72222 18.75C9.72222 18.3333 9.99999 18.0555 10.4167 18.0555H21.5278C21.9444 18.0555 22.2222 18.3333 22.2222 18.75C22.2222 19.1666 21.9444 19.4444 21.5278 19.4444Z" fill="#6F6F6F"/>
</g>
<defs>
<clipPath id="clip0_1_46">
<rect width="25" height="25" fill="white"/>
</clipPath>
</defs>
</svg>
